<svg width="17" height="17" viewBox="0 0 17 17" fill="none" xmlns="http://www.w3.org/2000/svg">
<g clip-path="url(#clip0_206_374)">
<path d="M14.7759 5.79736C15.1307 5.79736 15.4711 5.93833 15.722 6.18924C15.9729 6.44016 16.1139 6.78047 16.1139 7.13532V9.81123C16.1139 10.1661 15.9729 10.5064 15.722 10.7573C15.4711 11.0082 15.1307 11.1492 14.7759 11.1492H14.0654C13.9024 12.4425 13.2729 13.6319 12.2952 14.4941C11.3174 15.3563 10.0587 15.832 8.75509 15.832V14.4941C9.81964 14.4941 10.8406 14.0712 11.5933 13.3184C12.3461 12.5657 12.769 11.5448 12.769 10.4802V6.46634C12.769 5.4018 12.3461 4.38085 11.5933 3.62811C10.8406 2.87536 9.81964 2.45247 8.75509 2.45247C7.69055 2.45247 6.66961 2.87536 5.91686 3.62811C5.16411 4.38085 4.74122 5.4018 4.74122 6.46634V11.1492H2.73429C2.37944 11.1492 2.03913 11.0082 1.78821 10.7573C1.53729 10.5064 1.39633 10.1661 1.39633 9.81123V7.13532C1.39633 6.78047 1.53729 6.44016 1.78821 6.18924C2.03913 5.93833 2.37944 5.79736 2.73429 5.79736H3.44474C3.60799 4.50416 4.23754 3.31497 5.21524 2.45292C6.19295 1.59088 7.45162 1.11523 8.75509 1.11523C10.0586 1.11523 11.3172 1.59088 12.2949 2.45292C13.2726 3.31497 13.9022 4.50416 14.0654 5.79736H14.7759ZM5.91863 11.0054L6.62774 9.87077C7.26533 10.2702 8.00274 10.4814 8.75509 10.4802C9.50745 10.4814 10.2449 10.2702 10.8824 9.87077L11.5916 11.0054C10.7415 11.538 9.75825 11.8197 8.75509 11.8182C7.75193 11.8197 6.76872 11.538 5.91863 11.0054Z" fill="#F9995D"/>
</g>
<defs>
<clipPath id="clip0_206_374">
<rect width="16.0555" height="16.0555" fill="white" transform="translate(0.727325 0.445557)"/>
</clipPath>
</defs>
</svg>
