<svg width="17" height="17" viewBox="0 0 17 17" fill="none" xmlns="http://www.w3.org/2000/svg">
<path d="M14.4725 5.79736C14.8273 5.79736 15.1676 5.93833 15.4185 6.18924C15.6695 6.44016 15.8104 6.78047 15.8104 7.13532V9.81123C15.8104 10.1661 15.6695 10.5064 15.4185 10.7573C15.1676 11.0082 14.8273 11.1492 14.4725 11.1492H13.762C13.5989 12.4425 12.9694 13.6319 11.9917 14.4941C11.014 15.3563 9.75523 15.832 8.45166 15.832V14.4941C9.5162 14.4941 10.5371 14.0712 11.2899 13.3184C12.0426 12.5657 12.4655 11.5448 12.4655 10.4802V6.46634C12.4655 5.4018 12.0426 4.38085 11.2899 3.62811C10.5371 2.87536 9.5162 2.45247 8.45166 2.45247C7.38711 2.45247 6.36617 2.87536 5.61342 3.62811C4.86068 4.38085 4.43779 5.4018 4.43779 6.46634V11.1492H2.43085C2.076 11.1492 1.73569 11.0082 1.48477 10.7573C1.23386 10.5064 1.0929 10.1661 1.0929 9.81123V7.13532C1.0929 6.78047 1.23386 6.44016 1.48477 6.18924C1.73569 5.93833 2.076 5.79736 2.43085 5.79736H3.14131C3.30456 4.50416 3.9341 3.31497 4.91181 2.45292C5.88951 1.59088 7.14819 1.11523 8.45166 1.11523C9.75513 1.11523 11.0138 1.59088 11.9915 2.45292C12.9692 3.31497 13.5988 4.50416 13.762 5.79736H14.4725ZM5.61519 11.0054L6.32431 9.87077C6.96189 10.2702 7.6993 10.4814 8.45166 10.4802C9.20401 10.4814 9.94142 10.2702 10.579 9.87077L11.2881 11.0054C10.438 11.538 9.45482 11.8197 8.45166 11.8182C7.4485 11.8197 6.46529 11.538 5.61519 11.0054Z" fill="#F9995D"/>
</svg>
