<svg width="45" height="9" viewBox="0 0 45 9" fill="none" xmlns="http://www.w3.org/2000/svg">
<path d="M8.48537 0.883104L8.11208 2.48464H5.54722L4.07814 8.83057H2.00699L3.47606 2.48464H0.887115L1.26041 0.883104H8.48537ZM7.54161 8.83057L9.52848 0.25694H11.5755L10.6724 4.1825L10.4677 4.4715C10.5721 4.13434 10.7286 3.8333 10.9373 3.56838C11.1461 3.30347 11.407 3.09073 11.72 2.93018C12.0331 2.76962 12.3904 2.68934 12.7918 2.68934C13.1931 2.68934 13.5343 2.78166 13.8153 2.9663C14.1043 3.15094 14.305 3.41184 14.4174 3.74901C14.5378 4.08617 14.5458 4.48756 14.4415 4.95317L13.5383 8.83057H11.4913L12.3221 5.27829C12.3944 4.95718 12.3663 4.70832 12.2378 4.53171C12.1094 4.34707 11.9007 4.25475 11.6117 4.25475C11.3949 4.25475 11.2023 4.30693 11.0337 4.4113C10.8731 4.50763 10.7326 4.65614 10.6122 4.85684C10.4998 5.0495 10.4115 5.29033 10.3473 5.57933L9.58868 8.83057H7.54161ZM18.2752 8.93894C17.6811 8.93894 17.1593 8.82655 16.7098 8.60178C16.2602 8.36897 15.911 8.04786 15.6622 7.63845C15.4133 7.22903 15.2889 6.75138 15.2889 6.2055C15.2889 5.53117 15.4254 4.9331 15.6983 4.4113C15.9793 3.88146 16.3726 3.46402 16.8784 3.15897C17.3921 2.85391 18.0023 2.70139 18.7087 2.70139C19.2947 2.70139 19.7924 2.81378 20.2019 3.03855C20.6193 3.2553 20.9364 3.56437 21.1531 3.96576C21.3699 4.36714 21.4783 4.84078 21.4783 5.38667C21.4783 5.53919 21.4702 5.69975 21.4542 5.86833C21.4381 6.03691 21.406 6.20148 21.3579 6.36204H16.6135V5.25421H20.0212L19.4553 5.56729C19.4874 5.4549 19.5075 5.35857 19.5155 5.27829C19.5235 5.19801 19.5275 5.12175 19.5275 5.0495C19.5275 4.84078 19.4914 4.66818 19.4192 4.53171C19.3469 4.39524 19.2466 4.29489 19.1181 4.23067C18.9897 4.15842 18.8371 4.1223 18.6605 4.1223C18.3715 4.1223 18.1307 4.19053 17.938 4.327C17.7534 4.46348 17.6049 4.6441 17.4925 4.86888C17.3801 5.08563 17.2998 5.32244 17.2517 5.57933C17.2115 5.83622 17.1915 6.08508 17.1915 6.32591C17.1915 6.5828 17.2396 6.79955 17.336 6.97616C17.4403 7.15277 17.5768 7.28924 17.7454 7.38557C17.922 7.47388 18.1267 7.51803 18.3595 7.51803C18.6485 7.51803 18.8813 7.45381 19.0579 7.32537C19.2345 7.18889 19.371 7.02031 19.4673 6.81962L21.1531 7.48191C21.0167 7.78696 20.8039 8.04786 20.5149 8.26461C20.234 8.48136 19.9008 8.64994 19.5155 8.77036C19.1382 8.88275 18.7248 8.93894 18.2752 8.93894ZM22.7671 8.83057V0.883104H26.6325C27.6118 0.891131 28.3343 1.07978 28.7999 1.44906C29.2656 1.81031 29.4984 2.33612 29.4984 3.02651C29.4984 3.47606 29.3659 3.86541 29.101 4.19455C28.8361 4.51566 28.4307 4.72036 27.8848 4.80867V4.82071C28.4949 4.90099 28.9485 5.11372 29.2455 5.45892C29.5505 5.79608 29.7031 6.2055 29.7031 6.68716C29.7031 7.36952 29.4622 7.89935 28.9806 8.27665C28.4989 8.64593 27.7764 8.83057 26.8131 8.83057H22.7671ZM24.766 7.37353H26.4639C26.8412 7.37353 27.1221 7.29727 27.3068 7.14474C27.4914 6.99221 27.5837 6.77145 27.5837 6.48245C27.5837 6.20148 27.4914 5.98875 27.3068 5.84425C27.1221 5.69172 26.8412 5.61546 26.4639 5.61546H24.766V7.37353ZM24.766 4.13434H26.2712C27.0098 4.13434 27.379 3.84534 27.379 3.26734C27.379 2.68935 27.0098 2.40035 26.2712 2.40035H24.766V4.13434ZM33.7201 2.68934C34.3543 2.68934 34.9082 2.81377 35.3818 3.06263C35.8635 3.30347 36.2368 3.6607 36.5017 4.13434C36.7746 4.59995 36.9111 5.16189 36.9111 5.82016C36.9111 6.47844 36.7746 7.04439 36.5017 7.51803C36.2368 7.98364 35.8635 8.34087 35.3818 8.58973C34.9082 8.83057 34.3543 8.95098 33.7201 8.95098C33.1019 8.95098 32.552 8.83057 32.0704 8.58973C31.5887 8.34087 31.2114 7.98364 30.9385 7.51803C30.6735 7.04439 30.5411 6.47844 30.5411 5.82016C30.5411 5.16189 30.6735 4.59995 30.9385 4.13434C31.2114 3.6607 31.5887 3.30347 32.0704 3.06263C32.552 2.81377 33.1019 2.68934 33.7201 2.68934ZM33.7201 4.14638C33.4873 4.14638 33.2866 4.20257 33.118 4.31496C32.9494 4.42735 32.821 4.60797 32.7327 4.85684C32.6444 5.10569 32.6002 5.4268 32.6002 5.82016C32.6002 6.21352 32.6444 6.53463 32.7327 6.78349C32.821 7.02432 32.9494 7.20495 33.118 7.32537C33.2866 7.43775 33.4873 7.49395 33.7201 7.49395C33.9609 7.49395 34.1656 7.43775 34.3342 7.32537C34.5028 7.20495 34.6312 7.02432 34.7195 6.78349C34.8078 6.53463 34.852 6.21352 34.852 5.82016C34.852 5.4268 34.8078 5.10569 34.7195 4.85684C34.6312 4.60797 34.5028 4.42735 34.3342 4.31496C34.1656 4.20257 33.9609 4.14638 33.7201 4.14638ZM39.5035 2.80976L40.9726 5.51912L41.6469 5.45892L44.0191 8.83057H41.671L40.1538 6.08508H39.4433L37.1434 2.80976H39.5035ZM43.971 2.80976L41.6951 6.061L40.9365 6.01283L39.359 8.83057H37.0591L39.4794 5.43483L40.1779 5.53117L41.671 2.80976H43.971Z" fill="#2947A9"/>
</svg>
