<svg width="17" height="17" viewBox="0 0 17 17" fill="none" xmlns="http://www.w3.org/2000/svg">
<g clip-path="url(#clip0_231_411)">
<rect x="0.0827026" y="7.54596" width="9.3657" height="9.3657" fill="#7595FD"/>
<path d="M7.44147 4.87005H9.44841L11.6493 2.66242C11.7115 2.59972 11.7855 2.54995 11.867 2.51599C11.9486 2.48202 12.036 2.46454 12.1243 2.46454C12.2126 2.46454 12.3001 2.48202 12.3816 2.51599C12.4631 2.54995 12.5371 2.59972 12.5993 2.66242L14.3253 4.39508C14.4499 4.52042 14.5198 4.68997 14.5198 4.8667C14.5198 5.04344 14.4499 5.21299 14.3253 5.33833L12.7933 6.87698H7.44147V8.21494C7.44147 8.39237 7.37099 8.56252 7.24553 8.68798C7.12008 8.81344 6.94992 8.88392 6.7725 8.88392C6.59507 8.88392 6.42491 8.81344 6.29946 8.68798C6.174 8.56252 6.10352 8.39237 6.10352 8.21494V6.20801C6.10352 5.85316 6.24448 5.51284 6.4954 5.26193C6.74631 5.01101 7.08663 4.87005 7.44147 4.87005ZM3.4276 8.21494V10.8909L1.89564 12.4228C1.77105 12.5482 1.70111 12.7177 1.70111 12.8944C1.70111 13.0712 1.77105 13.2407 1.89564 13.3661L3.62161 15.0987C3.6838 15.1614 3.75779 15.2112 3.83931 15.2452C3.92083 15.2791 4.00827 15.2966 4.09658 15.2966C4.1849 15.2966 4.27234 15.2791 4.35386 15.2452C4.43538 15.2112 4.50937 15.1614 4.57156 15.0987L7.44147 12.2288H10.1174C10.2948 12.2288 10.465 12.1583 10.5904 12.0329C10.7159 11.9074 10.7864 11.7373 10.7864 11.5598V10.8909H11.4553C11.6328 10.8909 11.8029 10.8204 11.9284 10.6949C12.0538 10.5695 12.1243 10.3993 12.1243 10.2219V9.5529H12.7933C12.9707 9.5529 13.1409 9.48242 13.2663 9.35696C13.3918 9.2315 13.4623 9.06134 13.4623 8.88392V8.21494H8.77943V8.88392C8.77943 9.23877 8.63847 9.57908 8.38755 9.83C8.13664 10.0809 7.79632 10.2219 7.44147 10.2219H6.10352C5.74867 10.2219 5.40836 10.0809 5.15744 9.83C4.90652 9.57908 4.76556 9.23877 4.76556 8.88392V6.87698L3.4276 8.21494Z" fill="#292E3D"/>
</g>
<defs>
<clipPath id="clip0_231_411">
<rect width="16.0555" height="16.0555" fill="white" transform="translate(0.0827026 0.85614)"/>
</clipPath>
</defs>
</svg>
